<svg width="16" height="20" viewBox="0 0 16 20" fill="none" xmlns="http://www.w3.org/2000/svg">
<path d="M10.6841 6.5291C11.3532 2.78161 9.43801 0 6.17997 0H0.253418V19.7065H7.79417C11.9584 19.7065 15.3349 16.3133 15.3349 12.1253C15.3349 9.55218 13.2638 7.58593 10.6841 6.5291ZM7.79417 17.4015H2.54762V2.30651H6.17997C7.76766 2.30651 9.12141 3.33668 9.61425 4.76668V4.76825C9.74214 5.14143 9.81232 5.54127 9.81232 5.95835C9.81232 6.38485 9.73902 6.79409 9.60489 7.17354C11.6074 7.91834 13.0407 9.85794 13.0407 12.1268C13.0407 15.0354 10.6873 17.4015 7.79417 17.4015Z" fill="#5D30DD"/>
<path d="M7.02998 9.13978C6.89586 9.16644 6.75861 9.18839 6.62292 9.20094C6.07238 9.25581 5.52651 9.18996 5.01028 9.02218C4.15717 9.76698 3.68304 11.3052 3.68304 12.3902C4.95881 12.6693 6.46384 12.0625 7.58365 11.2064C8.70345 10.3518 9.21813 8.97514 9.29455 7.66431C9.29455 7.66431 9.29143 7.66431 9.28987 7.66431C8.70657 8.49848 8.02814 8.93595 7.02998 9.13978Z" fill="#5D30DD"/>
<path d="M6.63228 8.42476C7.61796 8.29932 8.44456 7.74112 8.95143 6.96496C8.26832 6.34247 7.32943 6.00849 6.34375 6.13393C5.35807 6.25937 4.53147 6.81757 4.0246 7.59373C4.70771 8.21622 5.6466 8.5502 6.63228 8.42476Z" fill="#5D30DD"/>
</svg>
